<svg xmlns="http://www.w3.org/2000/svg" width="19.016" height="16.147" viewBox="0 0 19.016 16.147"><g transform="translate(-142 -913)"><g transform="translate(142 913)"><path d="M23.819,41.876l-5.131,2.986.3.521c.376.655.684.76.912.779a2.574,2.574,0,0,0,1.345-.487l2-1.162a2.55,2.55,0,0,0,1.09-.933c.1-.207.163-.528-.214-1.184ZM7.607,36.226a.983.983,0,0,0-.224.843.721.721,0,0,0,.363.523l4.1,1.107a.265.265,0,0,1-.069.52.21.21,0,0,1-.067-.01L6.365,37.767a.71.71,0,0,0-.574.271.989.989,0,0,0-.225.844.785.785,0,0,0,.417.533l.476.134h.007l4.671,1.261a.266.266,0,0,1,.186.325.263.263,0,0,1-.253.2.221.221,0,0,1-.069-.01L6.326,40.06a.7.7,0,0,0-.692.24.985.985,0,0,0-.223.843.894.894,0,0,0,.483.556L10.7,43a.265.265,0,0,1,.186.325.262.262,0,0,1-.253.2.218.218,0,0,1-.069-.008l-3.062-.827a.679.679,0,0,0-.246.175.869.869,0,0,0-.192.729.6.6,0,0,0,.293.44l7.463,2.016a2.632,2.632,0,0,0,2.126-.151,2.229,2.229,0,0,1,1.612-.195c-.01-.016-.02-.03-.03-.048l-.46-.8a1.737,1.737,0,0,0-1.027-.8,3.37,3.37,0,0,1-1.905-1.7L12.077,37a.211.211,0,0,1-.039,0L8.3,35.987a.763.763,0,0,0-.245-.018.74.74,0,0,0-.45.256h0Z" transform="translate(-5.391 -30.048)" fill="#083c64"/><path d="M35.048,11.273a.963.963,0,0,0-.748.436.721.721,0,0,0-.111.629l3.339,5.831a.263.263,0,0,1-.227.4.262.262,0,0,1-.228-.133L34.01,13.086a.687.687,0,0,0-.657-.325.964.964,0,0,0-.749.435.722.722,0,0,0-.111.629l3.2,5.582a.267.267,0,0,1-.1.362.256.256,0,0,1-.131.035.262.262,0,0,1-.228-.132l-2.273-3.91a.793.793,0,0,0-.327-.028.834.834,0,0,0-.574.372.583.583,0,0,0-.05.607l3.775,6.594a2.85,2.85,0,0,0,1.646,1.472,2.3,2.3,0,0,1,1.175.855l5.2-3.027a8.928,8.928,0,0,1,.372-2.333l.042-.181a4.755,4.755,0,0,0-.222-2.7,8.244,8.244,0,0,1-.41-1.989c0-.179.005-.328.01-.465a1.984,1.984,0,0,0-.025-.581,1.328,1.328,0,0,0-.96.357,1.858,1.858,0,0,0-.393,1.365l.183,1.748a.266.266,0,0,1-.49.161L38.264,11.61a.7.7,0,0,0-.658-.324.967.967,0,0,0-.75.434.711.711,0,0,0-.052.733l2.708,4.726a.266.266,0,0,1-.1.362.258.258,0,0,1-.131.036.262.262,0,0,1-.228-.132L35.645,11.49A.711.711,0,0,0,35.048,11.273Z" transform="translate(-25.581 -11.272)" fill="#083c64"/></g></g></svg>