<svg xmlns="http://www.w3.org/2000/svg" 
width="8.946" height="8.946" 
viewBox="0 0 8.946 8.946">
<g transform="translate(0 8.946) rotate(-90)">
<path d="M6.347,0H2.6A2.6,2.6,0,0,0,0,2.6V6.347a2.6,2.6,0,0,0,2.6,2.6H6.347a2.6,2.6,0,0,0,2.6-2.6V2.6A2.6,2.6,0,0,0,6.347,0Zm1.9,6.347a1.9,1.9,0,0,1-1.9,1.9H2.6a1.9,1.9,0,0,1-1.9-1.9V2.6A1.9,1.9,0,0,1,2.6.7H6.347a1.9,1.9,0,0,1,1.9,1.9Z" fill="#fff"/>
<g transform="translate(2.062 2.062)"><path d="M2.411,0A2.411,2.411,0,1,0,4.822,2.411,2.414,2.414,0,0,0,2.411,0Zm0,4.123A1.712,1.712,0,1,1,4.123,2.411,1.714,1.714,0,0,1,2.411,4.123Z" fill="#fff"/>
</g><g transform="translate(6.569 1.677)">
<circle cx="0.349" cy="0.349" r="0.349" fill="#fff"/>
</g>
</g>
</svg>