<svg xmlns="http://www.w3.org/2000/svg" width="12.383" height="9.792" viewBox="0 0 12.383 9.792"><g transform="translate(0 0)"><path d="M12.383,1.159a5.181,5.181,0,0,1-1.459.389A2.5,2.5,0,0,0,12.041.181a5.206,5.206,0,0,1-1.614.6A2.565,2.565,0,0,0,8.573,0a2.507,2.507,0,0,0-2.54,2.472,2.418,2.418,0,0,0,.066.564A7.278,7.278,0,0,1,.863.452,2.4,2.4,0,0,0,.519,1.695a2.455,2.455,0,0,0,1.13,2.058A2.593,2.593,0,0,1,.5,3.443v.031A2.493,2.493,0,0,0,2.536,5.9a2.639,2.639,0,0,1-.669.087,2.5,2.5,0,0,1-.478-.046A2.534,2.534,0,0,0,3.761,7.657,5.185,5.185,0,0,1,.606,8.714,5.543,5.543,0,0,1,0,8.68,7.322,7.322,0,0,0,3.894,9.793a7.078,7.078,0,0,0,7.227-7.036l-.009-.32A5,5,0,0,0,12.383,1.159Z" fill="#fff"/></g></svg>